{
  "accessors": [
    {
      "bufferView": 2,
      "componentType": 5126,
      "count": 21466,
      "max": [
        2.817617416381836,
        2.3530659675598145,
        1.1036628484725952
      ],
      "min": [
        -2.8253870010375977,
        -2.332015037536621,
        -0.6814417839050293
      ],
      "type": "VEC3"
    },
    {
      "bufferView": 2,
      "byteOffset": 257592,
      "componentType": 5126,
      "count": 21466,
      "max": [
        0.9473031163215637,
        0.9890947937965393,
        0.9999924898147583
      ],
      "min": [
        -0.9999983906745911,
        -0.9998384118080139,
        -0.939807653427124
      ],
      "type": "VEC3"
    },
    {
      "bufferView": 3,
      "componentType": 5126,
      "count": 21466,
      "max": [
        0.9999696016311646,
        0.9999858736991882,
        0.9992139935493469,
        1.0
      ],
      "min": [
        -0.9999865889549255,
        -1.0,
        -0.9990420937538147,
        -1.0
      ],
      "type": "VEC4"
    },
    {
      "bufferView": 1,
      "componentType": 5126,
      "count": 21466,
      "max": [
        0.9993174076080322,
        0.9986276030540466
      ],
      "min": [
        0.0007440918125212193,
        0.0021765511482954025
      ],
      "type": "VEC2"
    },
    {
      "bufferView": 0,
      "componentType": 5125,
      "count": 121038,
      "type": "SCALAR"
    }
  ],
  "asset": {
    "extras": {
      "author": "GSXNet (https://sketchfab.com/gsxn)",
      "license": "CC-BY-NC-4.0 (http://creativecommons.org/licenses/by-nc/4.0/)",
      "source": "https://sketchfab.com/3d-models/open-pit-mine-f631584e90df411bafc1aa9fd117e713",
      "title": "Open Pit Mine"
    },
    "generator": "Sketchfab-12.68.0",
    "version": "2.0"
  },
  "bufferViews": [
    {
      "buffer": 0,
      "byteLength": 484152,
      "name": "floatBufferViews",
      "target": 34963
    },
    {
      "buffer": 0,
      "byteLength": 171728,
      "byteOffset": 484152,
      "byteStride": 8,
      "name": "floatBufferViews",
      "target": 34962
    },
    {
      "buffer": 0,
      "byteLength": 515184,
      "byteOffset": 655880,
      "byteStride": 12,
      "name": "floatBufferViews",
      "target": 34962
    },
    {
      "buffer": 0,
      "byteLength": 343456,
      "byteOffset": 1171064,
      "byteStride": 16,
      "name": "floatBufferViews",
      "target": 34962
    }
  ],
  "buffers": [
    {
      "byteLength": 1514520,
      "uri": "scene.bin"
    }
  ],
  "images": [
    {
      "uri": "textures/Material.006_baseColor.jpeg"
    },
    {
      "uri": "textures/Material.006_normal.jpeg"
    }
  ],
  "materials": [
    {
      "doubleSided": true,
      "name": "Material.006",
      "normalTexture": {
        "index": 1
      },
      "pbrMetallicRoughness": {
        "baseColorTexture": {
          "index": 0
        },
        "metallicFactor": 0.0,
        "roughnessFactor": 0.8065929878048781
      }
    }
  ],
  "meshes": [
    {
      "name": "OpenPitMine_Material.006_0",
      "primitives": [
        {
          "attributes": {
            "NORMAL": 1,
            "POSITION": 0,
            "TANGENT": 2,
            "TEXCOORD_0": 3
          },
          "indices": 4,
          "material": 0,
          "mode": 4
        }
      ]
    }
  ],
  "nodes": [
    {
      "children": [
        1
      ],
      "matrix": [
        0.2028398960828781,
        0.0,
        0.0,
        0.0,
        0.0,
        4.5039504588757076e-17,
        -0.2028398960828781,
        0.0,
        0.0,
        0.2028398960828781,
        4.5039504588757076e-17,
        0.0,
        0.0,
        0.0,
        0.0,
        1.0
      ],
      "name": "Sketchfab_model"
    },
    {
      "children": [
        2
      ],
      "matrix": [
        1.0,
        0.0,
        0.0,
        0.0,
        0.0,
        0.0,
        1.0,
        0.0,
        0.0,
        -1.0,
        0.0,
        0.0,
        0.0,
        0.0,
        0.0,
        1.0
      ],
      "name": "OpenPitMine.fbx"
    },
    {
      "children": [
        3
      ],
      "name": "RootNode"
    },
    {
      "children": [
        4
      ],
      "matrix": [
        100.0,
        0.0,
        0.0,
        0.0,
        0.0,
        -1.629206793918314e-05,
        -99.99999999999868,
        0.0,
        0.0,
        99.99999999999868,
        -1.629206793918314e-05,
        0.0,
        480.743408203125,
        0.40582939982414246,
        -183.9564666748047,
        1.0
      ],
      "name": "OpenPitMine"
    },
    {
      "mesh": 0,
      "name": "OpenPitMine_Material.006_0"
    }
  ],
  "samplers": [
    {
      "magFilter": 9729,
      "minFilter": 9987,
      "wrapS": 10497,
      "wrapT": 10497
    }
  ],
  "scene": 0,
  "scenes": [
    {
      "name": "Sketchfab_Scene",
      "nodes": [
        0
      ]
    }
  ],
  "textures": [
    {
      "sampler": 0,
      "source": 0
    },
    {
      "sampler": 0,
      "source": 1
    }
  ]
}
